<svg width="25" height="25" viewBox="0 0 25 25" fill="none" xmlns="http://www.w3.org/2000/svg">
    <g clip-path="url(#clip0_4_100)">
        <path
            d="M25 12.5C25 19.4036 19.4036 25 12.5 25C5.59644 25 0 19.4036 0 12.5C0 5.59644 5.59644 0 12.5 0C19.4036 0 25 5.59644 25 12.5ZM2 12.5C2 18.299 6.70101 23 12.5 23C18.299 23 23 18.299 23 12.5C23 6.70101 18.299 2 12.5 2C6.70101 2 2 6.70101 2 12.5Z"
            fill="#304AC1" />
        <path
            d="M10.1577 24.7786C7.10129 24.1955 4.37218 22.4935 2.50394 20.0053C0.635701 17.517 -0.237348 14.4214 0.0554755 11.3236C0.348299 8.2259 1.78594 5.34873 4.08734 3.25461C6.38875 1.1605 9.38844 1.3601e-07 12.5 0L12.5 2C9.88629 2 7.36655 2.97482 5.43337 4.73387C3.50019 6.49293 2.29257 8.90976 2.0466 11.5119C1.80063 14.114 2.53399 16.7143 4.10331 18.8044C5.67263 20.8946 7.96509 22.3243 10.5325 22.814L10.1577 24.7786Z"
            fill="white" />
    </g>
    <defs>
        <clipPath id="clip0_4_100">
            <rect width="25" height="25" fill="white" />
        </clipPath>
    </defs>
</svg>